<svg xmlns="http://www.w3.org/2000/svg"  viewBox="0 0 64 64" width="96px" height="96px"><linearGradient id="Y45gdLn7lzzNw2cPeYr6Ma" x1="7.5" x2="7.5" y1="15.945" y2="37.951" gradientUnits="userSpaceOnUse"><stop offset="0" stop-color="#1a6dff"/><stop offset="1" stop-color="#c822ff"/></linearGradient><polygon fill="url(#Y45gdLn7lzzNw2cPeYr6Ma)" points="0,40 0,23 4,23 10,31 10,23 15,23 15,40 10,40 4,31 4,40"/><linearGradient id="Y45gdLn7lzzNw2cPeYr6Mb" x1="24" x2="24" y1="15.945" y2="37.951" gradientUnits="userSpaceOnUse"><stop offset="0" stop-color="#1a6dff"/><stop offset="1" stop-color="#c822ff"/></linearGradient><polygon fill="url(#Y45gdLn7lzzNw2cPeYr6Mb)" points="18,23 31,23 25,36 31,36 31,40 17,40 23,27 18,27"/><linearGradient id="Y45gdLn7lzzNw2cPeYr6Mc" x1="41" x2="41" y1="15.945" y2="37.951" gradientUnits="userSpaceOnUse"><stop offset="0" stop-color="#1a6dff"/><stop offset="1" stop-color="#c822ff"/></linearGradient><polygon fill="url(#Y45gdLn7lzzNw2cPeYr6Mc)" points="33,23 38,23 41,28 44,23 49,23 44,31 49,40 44,40 41,35 38,40 33,40 38,31"/><linearGradient id="Y45gdLn7lzzNw2cPeYr6Md" x1="57.5" x2="57.5" y1="15.945" y2="37.951" gradientUnits="userSpaceOnUse"><stop offset="0" stop-color="#1a6dff"/><stop offset="1" stop-color="#c822ff"/></linearGradient><polygon fill="url(#Y45gdLn7lzzNw2cPeYr6Md)" points="64,23 51,23 51,28 55,28 55,40 60,40 60,28 64,28"/></svg>